<svg preserveAspectRatio="none" overflow="visible" style="display: block;" width="15" height="17.3454" viewBox="0 0 15 17.3454" fill="none" xmlns="http://www.w3.org/2000/svg">
<g id="Group">
<g id="Vector">
</g>
<path id="Vector_2" d="M7.5 0C7.70411 2.69255e-05 7.90111 0.0749635 8.05364 0.210596C8.20617 0.346229 8.30362 0.533124 8.3275 0.735833L8.33333 0.833333V14.1667C8.3331 14.3791 8.25177 14.5834 8.10596 14.7378C7.96015 14.8923 7.76087 14.9852 7.54884 14.9976C7.3368 15.0101 7.12802 14.9411 6.96514 14.8048C6.80226 14.6685 6.69759 14.4751 6.6725 14.2642L6.66667 14.1667V0.833333C6.66667 0.61232 6.75446 0.400358 6.91074 0.244078C7.06702 0.0877973 7.27899 0 7.5 0ZM4.16667 2.5C4.38768 2.5 4.59964 2.5878 4.75592 2.74408C4.9122 2.90036 5 3.11232 5 3.33333V11.6667C5 11.8877 4.9122 12.0996 4.75592 12.2559C4.59964 12.4122 4.38768 12.5 4.16667 12.5C3.94565 12.5 3.73369 12.4122 3.57741 12.2559C3.42113 12.0996 3.33333 11.8877 3.33333 11.6667V3.33333C3.33333 3.11232 3.42113 2.90036 3.57741 2.74408C3.73369 2.5878 3.94565 2.5 4.16667 2.5ZM10.8333 2.5C11.0543 2.5 11.2663 2.5878 11.4226 2.74408C11.5789 2.90036 11.6667 3.11232 11.6667 3.33333V11.6667C11.6667 11.8877 11.5789 12.0996 11.4226 12.2559C11.2663 12.4122 11.0543 12.5 10.8333 12.5C10.6123 12.5 10.4004 12.4122 10.2441 12.2559C10.0878 12.0996 10 11.8877 10 11.6667V3.33333C10 3.11232 10.0878 2.90036 10.2441 2.74408C10.4004 2.5878 10.6123 2.5 10.8333 2.5ZM0.833333 5C1.05435 5 1.26631 5.0878 1.42259 5.24408C1.57887 5.40036 1.66667 5.61232 1.66667 5.83333V9.16667C1.66667 9.38768 1.57887 9.59964 1.42259 9.75592C1.26631 9.9122 1.05435 10 0.833333 10C0.61232 10 0.400358 9.9122 0.244078 9.75592C0.0877973 9.59964 0 9.38768 0 9.16667V5.83333C0 5.61232 0.0877973 5.40036 0.244078 5.24408C0.400358 5.0878 0.61232 5 0.833333 5ZM14.1667 5C14.3708 5.00003 14.5678 5.07496 14.7203 5.2106C14.8728 5.34623 14.9703 5.53312 14.9942 5.73583L15 5.83333V9.16667C14.9998 9.37907 14.9184 9.58336 14.7726 9.73781C14.6268 9.89225 14.4275 9.9852 14.2155 9.99764C14.0035 10.0101 13.7947 9.94111 13.6318 9.80478C13.4689 9.66845 13.3643 9.47508 13.3392 9.26417L13.3333 9.16667V5.83333C13.3333 5.61232 13.4211 5.40036 13.5774 5.24408C13.7337 5.0878 13.9457 5 14.1667 5Z" fill="#E8956A"/>
</g>
</svg>
